<?xml version="1.0" encoding="UTF-8" standalone="no"?>
<svg
   height="16px"
   viewBox="0 0 16 16"
   width="16px"
   version="1.1"
   id="svg1"
   xmlns="http://www.w3.org/2000/svg"
   xmlns:svg="http://www.w3.org/2000/svg"
   xmlns:rdf="http://www.w3.org/1999/02/22-rdf-syntax-ns#"
   xmlns:cc="http://creativecommons.org/ns#"
   xmlns:dc="http://purl.org/dc/elements/1.1/">
  <defs
     id="defs1" />
  <path
     d="m 2.984375,0.00316681 c -1.648437,0 -3,1.35546879 -3,2.99999979 V 13.003167 c 0,1.644532 1.351563,3 3,3 h 10 c 1.644531,0 3,-1.355468 3,-3 V 3.0031666 c 0,-1.644531 -1.355469,-2.99999979 -3,-2.99999979 z m 8,1.99609379 h 1 v 0.992188 h 1 v -0.992188 h 1 v 0.992188 h -1 v 1 l 1,0.00781 v 1 h -1 v -1.003906 h -1 v 1.003906 h -1 v -1.007812 h 1 v -1 l -1,0.00781 z m 3.015625,4 -0.01953,7.0039064 c 0,0.570313 -0.425781,1 -1,1 h -10 c -0.570313,0 -1,-0.429687 -1,-1 L 2,5.9992606 Z m 0,0"
     fill="#222222"
     id="path1"
     style="fill:#222222;fill-opacity:1" />
  <path
     d="m 4.4156138,13.599274 c 0,0 2.74482,-3.502435 2.74482,-3.502435 0,0 -2.74482,-3.6993077 -2.74482,-3.6993077 h 1.7752213 c 0,0 2.1984201,2.9934299 2.1984201,2.9934299 L 5.042999,13.599274 Z M 7.5940481,10.630217 10.939352,6.3975313 c 0,0 0.645034,0 0.645034,0 L 8.8387461,9.8705717 c 0,0 2.7456399,3.7287023 2.7456399,3.7287023 H 9.8091495 Z"
     id="path2830"
     style="fill:#222222;stroke-width:0.0263766;fill-opacity:1" />
  <metadata
     id="metadata1">
     <rdf:RDF>
      <cc:Work
         rdf:about="">
        <dc:source>https://en.wikipedia.org/wiki/File:X11.svg</dc:source>
        <dc:title>X11</dc:title>
        <dc:rights>
          <cc:Agent>
            <dc:title>Public Domain</dc:title>
          </cc:Agent>
        </dc:rights>
        <dc:publisher>
          <cc:Agent>
            <dc:title>Wikimedia Commons</dc:title>
          </cc:Agent>
        </dc:publisher>
        <cc:license
           rdf:resource="https://en.wikipedia.org/wiki/File:X11.svg" />
      </cc:Work>
    </rdf:RDF>
  </metadata>
</svg>
